<svg version="1.2" xmlns="http://www.w3.org/2000/svg" viewBox="0 0 350 100" width="350" height="100">
	<title>New Project</title>
	<style>
		.s0 { fill: #75b947 } 
		.s1 { fill: #000000 } 
		.s2 { fill: #274193 } 
		.s3 { fill: #ffffff } 
	</style>
	<path id="Layer" class="s0" d="m83.4 68.6h263.1v2.7h-263.1z"/>
	<path id="Layer" class="s1" d="m83.2 81.1c0-0.1 0.1-0.3 0.2-0.3h1.2c0.1 0 0.2 0.2 0.2 0.3v3.4h3.7v-3.4c0-0.1 0.1-0.3 0.2-0.3h1.2c0.1 0 0.2 0.2 0.2 0.3v8.5c0 0.1-0.1 0.2-0.2 0.2h-1.2c-0.1 0-0.2-0.1-0.2-0.2v-3.6h-3.7v3.6c0 0.1-0.1 0.2-0.2 0.2h-1.2c-0.1 0-0.2-0.1-0.2-0.2z"/>
	<path id="Layer" fill-rule="evenodd" class="s1" d="m97.3 89.9c-2.5 0-4.6-2-4.6-4.6 0-2.5 2.1-4.6 4.6-4.6 2.6 0 4.6 2.1 4.6 4.6 0 2.6-2 4.6-4.6 4.6zm2.9-4.6c0-1.6-1.3-2.9-2.9-2.9-1.6 0-2.9 1.3-2.9 2.9 0 1.7 1.3 3 2.9 3 1.6 0 2.9-1.3 2.9-3z"/>
	<path id="Layer" class="s1" d="m104.5 81c0-0.1 0.1-0.2 0.2-0.2h0.4l5.1 5.5v-5.2c0-0.1 0.1-0.3 0.2-0.3h1.2c0.1 0 0.2 0.2 0.2 0.3v8.6c0 0.1-0.1 0.2-0.2 0.2h-0.3l-5.1-5.6v5.4c0 0.1-0.1 0.2-0.3 0.2h-1.1c-0.1 0-0.2-0.1-0.2-0.2v-8.7z"/>
	<path id="Layer" fill-rule="evenodd" class="s1" d="m126.1 81.1c0-0.1 0.2-0.3 0.3-0.3h4.3c1.5 0 2.7 1.3 2.7 2.8 0 1.2-0.8 2.2-1.9 2.7l1.8 3.2c0.2 0.2 0 0.4-0.2 0.4h-1.2c-0.2 0-0.2 0-0.3-0.1l-1.8-3.4h-2.1v3.3c0 0.1-0.1 0.2-0.2 0.2h-1.1c-0.1 0-0.3-0.1-0.3-0.2zm4.4 3.8c0.7 0 1.3-0.5 1.3-1.3 0-0.7-0.6-1.2-1.3-1.2h-2.6v2.5z"/>
	<path id="Layer" class="s1" d="m138.8 81.3c0-0.1 0.2-0.2 0.3-0.2h1.2c0.1 0 0.3 0.1 0.3 0.2v8c0 0.1-0.2 0.2-0.3 0.2h-1.2c-0.1 0-0.3-0.1-0.3-0.2z"/>
	<path id="Layer" class="s1" d="m143 88.4c0.1 0 0.1 0.2 0.1 0.2v1.1c0 0.1-0.1 0.1-0.1 0.1h-6.6c-0.1 0-0.1-0.1-0.1-0.1v-1.1c0-0.1 0.1-0.2 0.1-0.2z"/>
	<path id="Layer" class="s1" d="m142.4 80.8c0.2 0 0.2 0.2 0.2 0.2v1c0 0.2-0.1 0.2-0.2 0.2h-5.4c-0.2 0-0.2-0.1-0.2-0.2v-1c0-0.1 0.1-0.2 0.2-0.2z"/>
	<path id="Layer" class="s1" d="m168.2 81.2v-0.2h3.1v0.2h-0.4c-0.3 0-0.6 0.2-0.8 0.4-0.1 0.2-0.1 0.5-0.1 1v3.5q0 1.3-0.3 2.1c-0.1 0.4-0.5 0.9-1 1.2q-0.7 0.5-2.1 0.5-1.5 0-2.2-0.5-0.8-0.5-1-1.3c-0.1-0.4-0.2-1.1-0.2-2.2v-3.4c0-0.5-0.1-0.9-0.3-1.1-0.1-0.2-0.4-0.2-0.7-0.2h-0.4v-0.2h3.8v0.2h-0.3q-0.6 0-0.8 0.3c-0.1 0.2-0.2 0.5-0.2 1v3.8c0 0.4 0.1 0.8 0.1 1.2q0.1 0.7 0.4 1 0.2 0.4 0.6 0.6c0.3 0.2 0.7 0.3 1.2 0.3q0.9 0 1.5-0.4c0.5-0.3 0.8-0.6 1-1 0.1-0.4 0.2-1 0.2-2v-3.6q0-0.8-0.2-1c-0.2-0.2-0.4-0.3-0.7-0.3h-0.2z"/>
	<path id="Layer" class="s1" d="m173.6 81h2.4l5.4 6.5v-5.1q0-0.7-0.2-1c-0.2-0.2-0.4-0.3-0.8-0.3h-0.2v-0.2h3v0.2h-0.2c-0.4 0-0.7 0.1-0.8 0.4-0.2 0.1-0.2 0.4-0.2 0.9v7.5h-0.2l-5.8-7.1v5.4q0 0.8 0.2 1.1c0.2 0.1 0.4 0.2 0.7 0.2h0.3v0.3h-3.1v-0.3h0.3c0.4 0 0.7-0.1 0.8-0.3 0.1-0.1 0.1-0.5 0.1-1v-6.1c-0.2-0.3-0.4-0.5-0.5-0.6-0.1-0.1-0.4-0.1-0.6-0.3-0.1 0-0.3 0-0.6 0v-0.2z"/>
	<path id="Layer" class="s1" d="m189.8 89.5v0.2h-3.8v-0.2h0.3q0.5 0 0.8-0.4 0.1-0.2 0.1-0.9v-5.7q0.1-0.7 0-0.9c-0.1-0.1-0.1-0.2-0.3-0.2-0.2-0.2-0.4-0.2-0.6-0.2h-0.3v-0.2h3.8v0.2h-0.3q-0.5 0-0.8 0.3-0.2 0.2-0.2 1v5.7q0 0.6 0.1 0.8c0 0.1 0.1 0.3 0.3 0.3 0.1 0.1 0.4 0.2 0.5 0.2z"/>
	<path id="Layer" class="s1" d="m200.1 81l0.1 2h-0.2q-0.1-0.5-0.2-0.8c-0.1-0.2-0.3-0.4-0.5-0.6q-0.4-0.1-0.9-0.1h-1.3v6.7q0 0.7 0.2 1c0.1 0.2 0.4 0.3 0.7 0.3h0.3v0.2h-3.7v-0.2h0.3q0.5 0 0.8-0.4 0.1-0.2 0.1-0.9v-6.7h-1q-0.6 0-0.9 0.1c-0.2 0-0.4 0.2-0.5 0.4-0.2 0.3-0.3 0.6-0.3 1h-0.2l0.1-2z"/>
	<path id="Layer" class="s1" d="m205.6 81.4v3.5h2q0.7 0 1-0.2c0.2-0.2 0.3-0.6 0.4-1.1h0.2v3.1h-0.2q-0.1-0.6-0.2-0.8c0-0.1-0.2-0.3-0.4-0.3-0.2-0.1-0.4-0.1-0.8-0.1h-1.9v2.9q0 0.6 0 0.7c0.1 0 0.1 0.2 0.2 0.2 0.1 0.1 0.2 0.1 0.5 0.1h1.5c0.5 0 0.9-0.1 1.1-0.1 0.2-0.1 0.5-0.3 0.6-0.5 0.3-0.2 0.5-0.6 0.8-1.2h0.3l-0.7 2.3h-6.8v-0.2h0.3q0.3 0 0.6-0.2c0.1-0.1 0.2-0.2 0.3-0.3q0-0.2 0-0.9v-5.7q0-0.8-0.2-1c-0.1-0.2-0.4-0.3-0.8-0.3h-0.2v-0.2h6.7l0.1 1.9h-0.2c-0.1-0.4-0.2-0.8-0.3-1q-0.2-0.2-0.5-0.4c-0.2 0-0.5-0.1-0.9-0.1h-2.5z"/>
	<path id="Layer" fill-rule="evenodd" class="s1" d="m213.5 89.5h0.4c0.4 0 0.6-0.1 0.8-0.4 0.1-0.1 0.1-0.4 0.1-0.9v-5.7q0-0.9-0.2-1c-0.2-0.2-0.4-0.3-0.7-0.3h-0.4v-0.2h3.6c1.3 0 2.3 0.1 3 0.4 0.7 0.3 1.3 0.8 1.7 1.5q0.6 1 0.6 2.4 0 1.8-1.2 3.1-1.2 1.4-3.8 1.4h-3.9zm2.5-0.4q0.9 0.1 1.4 0.1c1 0 1.8-0.3 2.5-1 0.7-0.7 1-1.7 1-2.9 0-1.2-0.3-2.1-1-2.8-0.7-0.7-1.5-1-2.6-1q-0.6 0-1.3 0.1z"/>
	<path id="Layer" class="s1" d="m238.2 81.2v-0.2h3.1v0.2h-0.3c-0.4 0-0.7 0.2-0.8 0.4-0.1 0.2-0.1 0.5-0.1 1v3.5q-0.1 1.3-0.3 2.1c-0.2 0.4-0.5 0.9-1.1 1.2q-0.7 0.5-2.1 0.5-1.4 0-2.1-0.5-0.8-0.5-1.1-1.3c-0.1-0.4-0.2-1.1-0.2-2.2v-3.4c0-0.5-0.1-0.9-0.2-1.1-0.2-0.2-0.4-0.2-0.8-0.2h-0.2v-0.2h3.8v0.2h-0.4q-0.5 0-0.8 0.3c-0.1 0.2-0.1 0.5-0.1 1v3.8c0 0.4 0 0.8 0.1 1.2q0.1 0.7 0.3 1 0.3 0.4 0.7 0.6c0.3 0.2 0.7 0.3 1.1 0.3q0.9 0 1.6-0.4c0.4-0.3 0.7-0.6 0.9-1 0.2-0.4 0.2-1 0.2-2v-3.6q0-0.8-0.1-1c-0.2-0.2-0.4-0.3-0.8-0.3h-0.3z"/>
	<path id="Layer" class="s1" d="m243.7 81h2.4l5.4 6.5v-5.1q0-0.7-0.2-1c-0.2-0.2-0.4-0.3-0.8-0.3h-0.3v-0.2h3.1v0.2h-0.2c-0.4 0-0.7 0.1-0.8 0.4-0.2 0.1-0.2 0.4-0.2 0.9v7.5h-0.2l-5.8-7.1v5.4q0 0.8 0.2 1.1c0.2 0.1 0.4 0.2 0.7 0.2h0.3v0.3h-3v-0.3h0.3c0.4 0 0.6-0.1 0.8-0.3q0.2-0.2 0.2-1v-6.1c-0.3-0.3-0.5-0.5-0.6-0.6-0.1-0.1-0.4-0.1-0.6-0.3-0.1 0-0.3 0-0.6 0v-0.2z"/>
	<path id="Layer" class="s1" d="m259.9 89.5v0.2h-3.8v-0.2h0.3q0.5 0 0.8-0.4 0.1-0.2 0.1-0.9v-5.7q0.1-0.7 0-0.9c-0.1-0.1-0.1-0.2-0.3-0.2-0.2-0.2-0.4-0.2-0.6-0.2h-0.3v-0.2h3.8v0.2h-0.3q-0.6 0-0.8 0.3-0.2 0.2-0.2 1v5.7q0 0.6 0.1 0.8c0 0.1 0.1 0.3 0.2 0.3 0.2 0.1 0.4 0.2 0.6 0.2z"/>
	<path id="Layer" class="s1" d="m271.9 81v0.2c-0.3 0-0.5 0.2-0.7 0.3-0.2 0.2-0.4 0.5-0.6 0.9l-3.1 7.5h-0.2l-3.3-7.6q-0.3-0.6-0.4-0.7c-0.1-0.1-0.2-0.2-0.4-0.2-0.1-0.1-0.3-0.2-0.6-0.2v-0.2h3.6v0.2c-0.4 0-0.7 0.1-0.8 0.2q-0.2 0.2-0.2 0.4 0.1 0.4 0.3 1l2.3 5.2 2-5.1c0.2-0.5 0.3-0.9 0.3-1q0-0.2-0.2-0.4c-0.1-0.1-0.3-0.1-0.6-0.2q0 0-0.1 0v-0.2h2.7z"/>
	<path id="Layer" class="s1" d="m277.2 81.4v3.5h1.9q0.8 0 1.1-0.2c0.2-0.2 0.3-0.6 0.4-1.1h0.2v3.1h-0.2q-0.1-0.6-0.2-0.8c-0.1-0.1-0.2-0.3-0.4-0.3-0.2-0.1-0.5-0.1-0.8-0.1h-2v2.9q0 0.6 0.1 0.7c0 0 0.1 0.2 0.1 0.2 0.1 0.1 0.3 0.1 0.5 0.1h1.5c0.5 0 0.9-0.1 1.1-0.1 0.2-0.1 0.5-0.3 0.6-0.5 0.3-0.2 0.6-0.6 0.8-1.2h0.3l-0.7 2.3h-6.8v-0.2h0.3q0.4 0 0.6-0.2c0.1-0.1 0.2-0.2 0.3-0.3q0.1-0.2 0-0.9v-5.7q0-0.8-0.1-1c-0.2-0.2-0.4-0.3-0.8-0.3h-0.3v-0.2h6.7l0.1 1.9h-0.2c-0.1-0.4-0.2-0.8-0.3-1q-0.1-0.2-0.5-0.4c-0.2 0-0.4-0.1-0.9-0.1h-2.4z"/>
	<path id="Layer" fill-rule="evenodd" class="s1" d="m291.5 89.7l-3-4.1q-0.3 0-0.5 0-0.1 0-0.2 0 0 0-0.1 0v2.6q0 0.8 0.1 1c0.2 0.2 0.4 0.3 0.8 0.3h0.3v0.2h-3.7v-0.2h0.3c0.4 0 0.6-0.1 0.8-0.4 0.1-0.1 0.1-0.4 0.1-0.9v-5.7q0-0.9-0.2-1c-0.1-0.2-0.4-0.3-0.7-0.3h-0.3v-0.2h3.2q1.3-0.1 2 0.2c0.5 0.1 0.8 0.4 1.2 0.7 0.2 0.4 0.4 0.8 0.4 1.3 0 0.6-0.2 1.1-0.5 1.5q-0.5 0.6-1.7 0.8l1.9 2.5c0.4 0.6 0.7 1 1.1 1.2q0.4 0.3 1.1 0.3v0.2zm-3.9-4.5c0.1 0 0.2 0 0.2 0q0.1 0 0.2 0 1.3 0 1.9-0.6 0.6-0.5 0.6-1.4c0-0.5-0.1-0.9-0.5-1.3q-0.5-0.5-1.4-0.5-0.3 0-1 0.1z"/>
	<path id="Layer" class="s1" d="m301.9 80.7v3.1h-0.3c0-0.6-0.2-1.1-0.4-1.4q-0.3-0.5-0.8-0.8c-0.4-0.2-0.8-0.3-1.2-0.3-0.4 0-0.8 0.1-1.1 0.4-0.3 0.3-0.5 0.6-0.5 0.9 0 0.3 0.1 0.5 0.3 0.8 0.3 0.3 0.9 0.7 1.9 1.3q1.2 0.7 1.7 1 0.4 0.3 0.6 0.9c0.2 0.3 0.3 0.6 0.3 1q0 1-0.8 1.7c-0.5 0.5-1.2 0.8-2 0.8-0.3 0-0.5 0-0.8-0.1-0.1 0-0.4-0.1-0.8-0.2-0.4-0.1-0.7-0.3-0.8-0.3-0.1 0-0.2 0.1-0.3 0.2 0 0-0.1 0.1-0.1 0.4h-0.2v-3.1h0.2c0.1 0.6 0.3 1.1 0.5 1.4q0.2 0.5 0.8 0.9c0.4 0.2 0.8 0.2 1.4 0.2 0.5 0 0.9-0.1 1.2-0.4q0.5-0.4 0.5-1 0-0.4-0.2-0.6c-0.1-0.3-0.3-0.4-0.6-0.7q-0.2-0.1-1.3-0.8c-0.8-0.4-1.4-0.7-1.6-1-0.4-0.2-0.6-0.5-0.8-0.8-0.2-0.3-0.2-0.6-0.2-1 0-0.6 0.2-1.2 0.7-1.6q0.7-0.7 1.9-0.7 0.7 0 1.4 0.3 0.4 0.2 0.6 0.2c0.1 0 0.2 0 0.2-0.1 0.1-0.1 0.2-0.2 0.2-0.4h0.4z"/>
	<path id="Layer" class="s1" d="m309.6 89.5v0.2h-3.8v-0.2h0.3q0.5 0 0.8-0.4 0.2-0.2 0.2-0.9v-5.7q0-0.7-0.1-0.9c0-0.1-0.1-0.2-0.3-0.2-0.1-0.2-0.4-0.2-0.5-0.2h-0.3v-0.2h3.7v0.2h-0.3q-0.5 0-0.8 0.3-0.2 0.2-0.2 1v5.7q0 0.6 0.1 0.8c0 0.1 0.1 0.3 0.3 0.3 0.1 0.1 0.4 0.2 0.5 0.2z"/>
	<path id="Layer" class="s1" d="m319.9 81l0.2 2h-0.3q-0.1-0.5-0.1-0.8c-0.2-0.2-0.3-0.4-0.6-0.6q-0.3-0.1-0.8-0.1h-1.3v6.7q0 0.7 0.2 1c0.2 0.2 0.4 0.3 0.7 0.3h0.3v0.2h-3.7v-0.2h0.3c0.4 0 0.6-0.1 0.8-0.4q0.2-0.2 0.2-0.9v-6.7h-1.1q-0.6 0-0.8 0.1c-0.3 0-0.4 0.2-0.6 0.4-0.2 0.3-0.2 0.6-0.3 1h-0.3l0.1-2z"/>
	<path id="Layer" class="s1" d="m326.8 89.5v0.2h-3.8v-0.2h0.3q0.5 0 0.8-0.4 0.2-0.2 0.2-0.9v-5.7c0-0.5-0.1-0.7-0.1-0.9 0-0.1-0.1-0.2-0.3-0.2-0.1-0.2-0.4-0.2-0.5-0.2h-0.3v-0.2h3.8v0.2h-0.4q-0.5 0-0.8 0.3-0.1 0.2-0.1 1v5.7q-0.1 0.6 0 0.8c0.1 0.1 0.1 0.3 0.3 0.3 0.2 0.1 0.4 0.2 0.6 0.2z"/>
	<path id="Layer" class="s1" d="m332.2 81.4v3.5h2q0.8 0 1-0.2c0.2-0.2 0.4-0.6 0.4-1.1h0.3v3.1h-0.3q-0.1-0.6-0.2-0.8c-0.1-0.1-0.2-0.3-0.4-0.3-0.2-0.1-0.5-0.1-0.8-0.1h-2v2.9q0 0.6 0.1 0.7c0.1 0 0.1 0.2 0.2 0.2 0.1 0.1 0.2 0.1 0.5 0.1h1.5c0.5 0 0.8-0.1 1.1-0.1 0.2-0.1 0.4-0.3 0.6-0.5q0.4-0.4 0.8-1.2h0.3l-0.8 2.3h-6.7v-0.2h0.3q0.3 0 0.5-0.2c0.2-0.1 0.3-0.2 0.3-0.3q0.1-0.2 0.1-0.9v-5.7q0-0.8-0.2-1c-0.2-0.2-0.4-0.3-0.8-0.3h-0.3v-0.2h6.8l0.1 1.9h-0.2c-0.1-0.4-0.2-0.8-0.3-1q-0.2-0.2-0.5-0.4c-0.2 0-0.5-0.1-1-0.1h-2.4z"/>
	<path id="Layer" class="s1" d="m346 80.7v3.1h-0.3c0-0.6-0.2-1.1-0.4-1.4q-0.3-0.5-0.8-0.8c-0.4-0.2-0.8-0.3-1.2-0.3-0.4 0-0.8 0.1-1.1 0.4-0.3 0.3-0.5 0.6-0.5 0.9 0 0.3 0.2 0.5 0.3 0.8 0.3 0.3 0.9 0.7 1.9 1.3q1.2 0.7 1.7 1 0.4 0.3 0.7 0.9c0.1 0.3 0.2 0.6 0.2 1q0 1-0.8 1.7c-0.5 0.5-1.2 0.8-2 0.8-0.2 0-0.5 0-0.8-0.1-0.1 0-0.4-0.1-0.8-0.2-0.4-0.1-0.7-0.3-0.8-0.3-0.1 0-0.2 0.1-0.2 0.2-0.1 0-0.2 0.1-0.2 0.4h-0.2v-3.1h0.2c0.2 0.6 0.3 1.1 0.5 1.4q0.3 0.5 0.9 0.9c0.4 0.2 0.8 0.2 1.2 0.2 0.5 0 1-0.1 1.3-0.4q0.4-0.4 0.4-1 0-0.4-0.1-0.6c-0.2-0.3-0.3-0.4-0.6-0.7q-0.3-0.1-1.4-0.8-1.1-0.6-1.6-1c-0.3-0.2-0.6-0.5-0.7-0.8-0.2-0.3-0.3-0.6-0.3-1 0-0.6 0.3-1.2 0.8-1.6q0.7-0.7 1.8-0.7 0.7 0 1.5 0.3 0.3 0.2 0.5 0.2c0.1 0 0.2 0 0.3-0.1 0.1-0.1 0.1-0.2 0.2-0.4h0.4z"/>
	<path id="Layer" class="s1" d="m146 88.4l0.5-0.8c0.1-0.2 0.2-0.2 0.4-0.1 0.3 0.1 1.4 0.9 2.4 0.9 0.6 0 1.2-0.5 1.2-1 0-0.7-0.7-1.1-1.8-1.5-1.2-0.4-2.4-1.2-2.4-2.7 0-1.2 0.8-2.5 3-2.5 1.3 0 2.4 0.7 2.6 0.9 0.2 0 0.2 0.3 0.1 0.4l-0.5 0.6q-0.1 0.3-0.4 0.2c-0.7-0.3-1.3-0.6-2-0.6-0.8 0-1.2 0.4-1.2 0.9 0 0.5 0.6 1 1.6 1.4 1.3 0.5 2.8 1.3 2.8 2.9 0 1.3-1.2 2.5-3.1 2.5-1.7 0-2.9-0.9-3.2-1.1 0-0.1-0.1-0.2 0-0.4z"/>
	<path id="Layer" fill-rule="evenodd" class="s1" d="m119 89.9c-2.5 0-4.6-2-4.6-4.6 0-2.5 2.1-4.6 4.6-4.6 2.6 0 4.6 2.1 4.6 4.6 0 2.6-2 4.6-4.6 4.6zm2.9-4.6c0-1.6-1.3-2.9-2.9-2.9-1.6 0-2.9 1.3-2.9 2.9 0 1.7 1.3 3 2.9 3 1.6 0 2.9-1.3 2.9-3z"/>
	<path id="Layer" class="s2" d="m85.1 10.6h5.4l10.7 19.1v-19.1h4.8v25.8h-5.3l-10.9-18.8v18.8h-4.8v-25.8z"/>
	<path id="Layer" class="s2" d="m110.9 10.6h4.8v25.8h-4.8z"/>
	<path id="Layer" class="s2" d="m120.6 10.6h4.8v21.2h7.9v4.6h-12.7z"/>
	<path id="Layer" class="s2" d="m135.9 10.6h13.9v4.7h-9.1v5.9h8.7v4.7h-8.7v5.9h9v4.6h-13.8v-25.8z"/>
	<path id="Layer" class="s2" d="m163.8 28v-17.4h4.9v17.4q0 1.8 1 3.1c0.7 0.9 1.6 1.4 2.8 1.4q2.4 0 3.5-1.9c0.4-0.6 0.5-1.4 0.5-2.3v-17.6h4.9v17.4c0 2.4-0.8 4.5-2.4 6.2q-2.5 2.8-6.3 2.8-2.4 0-4.4-1.2-2-1.2-3.2-3.2-1.3-2.2-1.3-4.7z"/>
	<path id="Layer" class="s2" d="m186.2 10.6h5.5l10.7 19.1v-19.1h4.8v25.8h-5.4l-10.8-18.8v18.8h-4.8z"/>
	<path id="Layer" class="s2" d="m212 10.6h4.8v25.8h-4.8z"/>
	<path id="Layer" class="s2" d="m229.6 36.4l-9.9-25.7h5l7 19.6 6.9-19.6h5l-9.9 25.7z"/>
	<path id="Layer" class="s2" d="m246.1 10.6h13.9v4.7h-9.1v5.9h8.7v4.7h-8.7v5.9h9v4.6h-13.8v-25.8z"/>
	<path id="Layer" fill-rule="evenodd" class="s2" d="m272.1 10.6q2.6-0.1 4.8 0.8c2.1 0.9 3.6 2.6 4.2 4.9q0.4 1.2 0.4 2.6c0 2.3-0.9 4.4-2.8 6q-1.4 1.4-3.9 2l7 9.5h-6l-6.7-10v10h-4.9v-25.8zm-3 4.7v7.6h3.1q2 0 3.3-1.1 1.2-0.9 1.2-3c0-1.3-0.4-2.2-1.4-2.7-1-0.6-2.2-0.8-3.6-0.8z"/>
	<path id="Layer" class="s2" d="m283.6 17.5q0-2.1 1-3.8c0.7-1.1 1.6-2 2.9-2.6q1.8-0.9 3.8-0.9c1.5 0 3 0.4 4.3 1.2q2.9 1.8 3.3 6.1h-4.9c-0.1-0.6-0.3-1.1-0.6-1.5q-0.9-1.2-2.2-1.2c-0.9 0-1.5 0.3-2 0.8-0.5 0.6-0.8 1.3-0.8 2.1 0.1 0.9 0.8 1.7 2.1 2.3l3.9 1.7q2 0.8 3.4 2.3c1 1.1 1.6 2.6 1.6 4.4 0 1.9-0.4 3.5-1.2 4.7q-1.2 2-3.1 2.9-2 1.1-4 1.1-2.8 0-5-1.6-2.3-1.5-3.1-4.2-0.4-1-0.4-2.1h5.1q0 1.4 1 2.4 0.9 0.8 2.1 0.8c0.8 0 1.5-0.2 2.3-0.7 0.8-0.5 1.2-1 1.4-1.6q0.3-0.8 0.3-1.4c0-1-0.5-1.8-1.8-2.4-1-0.4-2.1-0.9-3.1-1.3-2-0.8-3.5-1.8-4.6-2.8q-1.7-1.9-1.7-4.7z"/>
	<path id="Layer" class="s2" d="m302.7 10.6h4.8v25.8h-4.8z"/>
	<path id="Layer" class="s2" d="m310.3 15.3v-4.7h14.4v4.7h-4.9v21.1h-4.7l-0.1-21.1z"/>
	<path id="Layer" class="s2" d="m324.7 10.6h5.4l5.6 11.8 5.6-11.8h5.3l-8.6 16.3v9.5h-4.7v-9.5z"/>
	<path id="Layer" fill-rule="evenodd" class="s2" d="m83.4 53.5q0-4.1 2.7-6.5c0.8-0.8 1.8-1.4 2.8-1.7 1-0.3 2-0.6 3.1-0.6q2.3 0 4.2 1.2c1.3 0.8 2.3 1.9 3.1 3.2q1.2 2.2 1.1 4.3v0.5c0 0.6-0.1 1.1-0.2 1.5-0.2 0.6-0.4 1.2-0.8 1.9q-1.1 2.2-3.1 3.4-2.1 1.2-4.6 1.2c-1.3 0-2.5-0.3-3.7-0.8-2-1-3.4-2.6-4.1-4.8-0.3-0.9-0.5-1.8-0.5-2.8zm3-0.1q0 1.6 0.9 2.9c0.5 0.8 1.1 1.4 1.9 1.9q1.3 0.7 2.6 0.7 1.5 0 2.8-0.7c0.8-0.5 1.5-1.2 2-2q0.8-1.5 0.8-2.8c0-1.1-0.3-2.1-0.8-3.1q-0.8-1.3-2.3-2-1.1-0.5-2.2-0.5-1.4 0-2.7 0.7-1.3 0.6-2.1 1.8c-0.6 0.8-0.9 1.9-0.9 3.1z"/>
	<path id="Layer" class="s2" d="m102.8 45.1h8.3v3h-5.3v3.7h5.1v2.9h-5.1v6.7h-3z"/>
	<path id="Layer" class="s2" d="m119.6 45.1h3.5l6.8 12v-12h3v16.4h-3.3l-6.9-12v12h-3v-16.4z"/>
	<path id="Layer" class="s2" d="m136 45.1h3.1v16.4h-3.1z"/>
	<path id="Layer" class="s2" d="m149.7 44.8c2.2 0 4.1 0.6 5.7 1.8 1.1 0.7 2 1.9 2.7 3.3h-3.7c-0.5-0.6-1-1.2-1.8-1.6q-1.1-0.5-2.4-0.5h-0.3q-0.2 0-0.2 0-1.2 0-2.6 0.8c-0.9 0.4-1.5 1.1-2 1.9-0.5 0.8-0.8 1.7-0.8 2.6q0 1.7 0.8 3c0.5 0.8 1.2 1.6 2.2 2q1.3 0.8 2.7 0.8c1 0 2-0.3 2.9-0.8 0.8-0.5 1.6-1.3 2.1-2.2h-6.9v-2.9h10.7c0 1.6-0.3 3.1-1.1 4.4q-1.1 2-3.1 3.2-1.9 1.2-4.4 1.2c-1.6 0-3.1-0.4-4.4-1.2q-2.1-1.1-3.3-3.1-1.2-2-1.2-4.2l0.1-0.3c0-1.1 0.2-2.1 0.7-3.2 0.9-2.1 2.4-3.5 4.5-4.5 1.1-0.3 2.1-0.5 3.1-0.5z"/>
	<path id="Layer" class="s2" d="m160.8 45.1h8.8v3h-5.8v3.7h5.6v2.9h-5.6v3.8h5.8v2.9h-8.8z"/>
	<path id="Layer" fill-rule="evenodd" class="s2" d="m177.2 45.1c1.1-0.1 2.2 0.1 3.1 0.5 1.4 0.6 2.3 1.7 2.7 3.1 0.2 0.6 0.2 1.1 0.2 1.7 0 1.5-0.5 2.8-1.7 3.8q-1 0.9-2.5 1.2l4.4 6.1h-3.8l-4.3-6.4v6.4h-3v-16.4zm-1.9 3v4.8h1.9c0.9 0 1.6-0.3 2.1-0.7 0.5-0.4 0.8-1 0.8-1.9q0-1.2-0.9-1.7-1-0.5-2.3-0.5z"/>
	<path id="Layer" class="s2" d="m185.2 45.1h3v16.4h-3z"/>
	<path id="Layer" fill-rule="evenodd" class="s2" d="m196.9 45.1h2.3l6.9 16.4h-3.3l-1.8-4.2h-5.8l-1.8 4.2h-3.3zm1.1 4.3l-1.7 4.9h3.5z"/>
	<path id="XMLID_00000134243168995758525630000013271360884579494815_" class="s2" d="m67.4 10h-60.3c-2.3 0-4.1 1.8-4.1 4.1v65c1.5 0 21.4 0.1 27 0.7 5.4 0.6 11.6 2.1 9.3 5.5-2 3 3.1 4.7 8.2 5 4.5 0.2 23.9 0.3 23.9 0.3v-76.5c0-2.3-1.8-4.1-4-4.1z"/>
	<path id="XMLID_00000137092540838767946500000014298529065399199107_" class="s0" d="m30.7 81.7c-4-1.5-26.1-1.8-27.7-1.8v11c0.7-0.8 13.4-3.7 18.7-4.5 6.2-1 16-2 9-4.7z"/>
	<path id="Layer" class="s3" d="m59.3 66.3h-6.1v-4.5h6.1v-3.2h-6.1v-3.1h6.1v-3.2h-9.4v17.2h9.4z"/>
	<path id="Layer" class="s3" d="m43.7 52.3h-3.3v17.2h8.1v-3.1h-4.8z"/>
	<path id="Layer" class="s3" d="m28.9 52.3h-3.3v11.3l-7.4-11.3h-3.1v17.2h3.2v-11.3l7.4 11.3h3.2z"/>
	<path id="Layer" class="s3" d="m33.2 52.3h3.3v17.2h-3.3z"/>
	<path id="Layer" class="s3" d="m36.5 69.5"/>
	<path id="Layer" class="s3" d="m45.5 49l0.2-0.3h-0.1z"/>
	<path id="Layer" class="s3" d="m30 48.9l-0.2-0.2h-0.1z"/>
	<path id="Layer" class="s3" d="m54.7 48.7l10.6-5-15.1 5z"/>
	<path id="Layer" class="s3" d="m49 48.7l16.3-11.7-19.6 11.7z"/>
	<path id="Layer" class="s3" d="m25.3 48.7l-16-7.5 11.4 7.5z"/>
	<path id="Layer" class="s3" d="m45.6 48.7l19.7-20.6-21.3 19.6 19.3-30c-0.4-0.2-21 29.1-21 29.1l11.9-29.4-13.7 28.8 5.6-28.8-7.5 28.4v-28.4l-1.8 28.4-7.6-28.4 5.7 28.8-13.8-28.8 12 29.4c0 0-21-29.4-21.3-29.3l19.6 30.3-22.1-20.5 20.5 21.5h15.8z"/>
	<path id="Layer" class="s3" d="m29.7 48.7l-20.4-14.7 17.2 14.7z"/>
</svg>